<?xml version="1.0" encoding="utf-8"?>
<!-- Generator: Adobe Illustrator 19.1.0, SVG Export Plug-In . SVG Version: 6.00 Build 0)  -->
<svg version="1.1" id="Layer_1" xmlns="http://www.w3.org/2000/svg" xmlns:xlink="http://www.w3.org/1999/xlink" x="0px" y="0px"
	 viewBox="0 0 1544.8 647.6" style="enable-background:new 0 0 1544.8 647.6;" xml:space="preserve">
<style type="text/css">
	.st0{fill:#FFFFFF;}
</style>
<g>
	<path class="st0" d="M809.9,298.7c3.4-3.4,7.3-6.4,10.6-9.3c-6.8-7-12.5-12.9-19-19.6c-1.4,1.8-2.5,3.3-3.8,4.5
		c-17.2,17.2-34.4,34.5-51.7,51.6c-9.1,8.9-22.8,9-31.7,0.4c-9.1-8.8-9.4-22.6-0.6-32.1c1.8-1.9,4.3-3.3,5.8-4.4
		c-7-7-12.9-12.8-18.9-18.8c-14.6,12.2-21.8,28.3-18.1,47.9c3.5,18.5,14.7,31.2,32.7,36.9c17.9,5.7,34.4,2,48.1-11.1
		C779.2,329.8,794.4,314.1,809.9,298.7z"/>
	<path class="st0" d="M792.8,179.8c-1.3,1.3-3.2,2.3-3.4,3.3c15.8,15.9,31,31.1,45.7,45.9c5.5-5.4,11.4-11.2,17.5-17.2
		c-9.1-8.8-18.4-17.9-28.1-27.3c20.6-20.6,40.3-40.5,60.2-60.1c9.2-9.2,23.1-9,32,0c9,9,8.8,22.5-0.2,32.1c-1.8,1.9-4.7,4.8-4.7,4.8
		l18.3,18.6c1.2-1.4,2.7-3.2,4.3-4.9c19.3-19.9,19.4-50,0.3-69c-19.2-19.1-49.3-18.7-68.9,0.9C841.5,131,817.2,155.4,792.8,179.8z"
		/>
	<path class="st0" d="M863.8,324.2c5.6-18.4,1.2-34.9-12.5-48.7c-15.5-15.6-31-31.2-46.5-46.8c-10.1-10.2-20.2-20.5-29.7-30.1
		l-45.9,45.9c5.3,5.3,11.1,11.2,18,18.1l26.7-28.1c20.3,20.3,40.4,40,60.1,60c8.9,9,8.3,23.1-0.5,31.7c-8.9,8.7-22.4,8.7-31.7,0
		c-2-1.8-3.5-4.1-5.6-5.2c-6,5.9-11.8,11.7-17.9,17.7c12.4,14.9,28.3,22.3,47.9,18.8C845.2,354.1,858.2,342.6,863.8,324.2z"/>
	<path class="st0" d="M759.2,184.8c-15.7-15.9-30.8-31.3-45.4-46.2c-5.9,5.7-11.8,11.4-18.3,17.7c9.3,9.1,18.7,18.3,27.9,27.4
		c-20.6,20.7-40.4,41.1-60.8,61c-8.8,8.6-22.8,7.5-31.2-1.3c-8.5-8.9-8.4-22.2,0-31.3c5.5-6.2,5.5-6.2,5.5-6.2
		c-5.9-5.8-11.6-11.5-17.9-17.7c-2.5,2.4-5,4.7-7.3,7.2c-20.3,22.5-15.2,57.8,10.6,73.7c18.7,11.5,43.1,9.1,58.9-6.5
		c25.5-25.2,50.8-50.7,76.2-76.1C758.2,185.7,759.2,185,759.2,184.8z"/>
	<path class="st0" d="M765.3,160.8c3,3,5.6,6.5,7.6,8.8c16.4-16.3,31.8-31.6,46.3-46c-5.4-5.5-11.1-11.3-17.8-18
		c-8.7,8.9-17.9,18.2-27.1,27.6c-20.1-20-40.3-39.9-60.1-60.1c-8.6-8.8-8-22.7,0.6-31.2c8.7-8.6,22-8.8,31.3-0.6
		c2.3,2,3.9,4.7,5.8,5.5l18.3-17c-15.1-18.2-35.2-24.5-55-17.7c-34.1,11.7-44,54.1-18.5,80.1C719.5,115.3,742.5,137.9,765.3,160.8z"
		/>
	<path class="st0" d="M729,79.3l18.3,18.5c0,0,2.6-3.1,4.1-4.6c16.9-17,33.8-34,50.9-50.9c9.4-9.2,23-9.3,32.1-0.6
		c9.1,8.7,9.2,22.3,0.4,32.1c-1.8,2-5.2,5.6-5.2,5.6c6,6,11.8,11.8,17.6,17.6c26.1-19.6,26.6-57.2,0.8-77.5
		c-18.7-14.7-46.3-12.9-63.2,4c-17.4,17.3-34.8,34.6-52.1,51.9C731.1,76.8,729,79.3,729,79.3z"/>
	<path class="st0" d="M933.6,192.1c-11-11-22-21.9-32.9-32.9c-7.1-7.2-14.1-14.4-20.8-21.3c-6.4,6.5-12.2,12.3-19,19
		c4.7,4.3,9.8,8.8,14.7,13.6c13.7,13.6,27.4,27.2,41,41c8.1,8.2,9.3,20.7,3.1,29.2c-6.9,9.4-19.3,12.3-29.9,6.9
		c-4.2-2.2-6.9-6.2-10.3-9.1c-6,6.2-11.9,12.1-18.3,18.7c1.4,1.2,3.3,2.6,4.9,4.3c20.3,19.5,50.2,19.6,69.4,0.1
		C954.3,242.3,953.5,212,933.6,192.1z"/>
	<path class="st0" d="M662,222.9c2.5,2.5,4.6,5.4,6.3,7.4c7-6.8,12.9-12.5,19.3-18.7c-5.9-5.7-11.9-11.4-17.7-17.2
		c-12.7-12.6-25.4-25.2-37.9-37.9c-9.2-9.4-9.2-23.1-0.3-32.1c8.7-8.8,22.2-9,31.7-0.4c2.1,1.9,4.1,3.9,5.7,5.4
		c6.2-6.1,12.1-11.8,18.1-17.7C676,98,661.8,90.4,643.9,92.1c-20.1,1.9-34.6,12.6-41.4,31.6c-6.9,19.4-2.6,37,12,51.7
		C630.3,191.3,646.2,207,662,222.9z"/>
	<path class="st0" d="M703,106.8c-18.7,18.6-37.5,37.4-56.3,56.1c5.4,5.3,11.2,11,16.6,16.3c18.8-18.6,37.6-37.4,56.3-55.9
		C714,117.8,708.2,111.9,703,106.8z"/>
	<path class="st0" d="M796.7,57.1c-5.5,5.4-11.4,11.1-16.4,16c18.3,18.4,36.9,37.2,55.3,55.7c5.5-5.4,11.2-11.1,16.2-16.2
		C833,93.8,814.4,75,796.7,57.1z"/>
	<path class="st0" d="M845.2,261.2c19.1-18.9,38-37.5,56.2-55.6c-5.6-5.6-11.3-11.5-16.9-17.1l-56.4,56.1L845.2,261.2z"/>
	<path class="st0" d="M696.4,256.1c18.4,18.4,37.1,37,55.5,55.4l16.8-16.8c-18.5-18.5-37.1-37.1-55.6-55.6L696.4,256.1z"/>
</g>
<g>
	<path class="st0" d="M22.5,409.4h17.2v35.3h35.7v-35.3h17.2v83.4H75.3v-32.8H39.6v32.8H22.5V409.4z"/>
	<path class="st0" d="M109.9,409.4h55.2v15.1h-38v19.1h33.5v14.7h-33.5v19.4h39.7v15.1h-56.9V409.4z"/>
	<path class="st0" d="M213.3,408.7h1.5l38.2,84.2h-18l-4.7-11.3h-32.4l-4.7,11.3h-16.6L213.3,408.7z M224.1,467.2l-5.3-12.6
		c-2.3-5.5-4.8-14-5-14.8c-0.1,0.4-2.6,9.1-4.9,14.8l-5.3,12.6H224.1z"/>
	<path class="st0" d="M264.3,409.4h17.2v68.3h37.8v15.1h-55V409.4z"/>
	<path class="st0" d="M341.7,424.5h-23.8v-15.1h64.8v15.1h-23.8v68.3h-17.2V424.5z"/>
	<path class="st0" d="M395.3,409.4h17.2v35.3h35.7v-35.3h17.2v83.4h-17.2v-32.8h-35.7v32.8h-17.2V409.4z"/>
	<path class="st0" d="M507.1,451.1c0-24.7,19-42.7,42.9-42.7c15.1,0,25.9,5.4,33.4,17.1l-13.1,9.3c-3.9-6.4-10.7-10.9-20.2-10.9
		c-15.1,0-25.3,11.7-25.3,27.2c0,15.6,10.2,27.5,25.3,27.5c10.8,0,16.8-5.2,21.5-12.3l13.4,9.2c-7.2,11.3-18.8,18.4-34.8,18.4
		C526.1,494,507.1,475.8,507.1,451.1z"/>
	<path class="st0" d="M593.6,451.1c0-24.7,19.1-42.8,43.2-42.8s43.2,18.2,43.2,42.8c0,24.7-19.1,42.8-43.2,42.8
		S593.6,475.8,593.6,451.1z M662.3,451.1c0-15.6-10.3-27.5-25.5-27.5s-25.5,11.9-25.5,27.5c0,15.6,10.3,27.5,25.5,27.5
		S662.3,466.7,662.3,451.1z"/>
	<path class="st0" d="M717.7,408.7h1.5l38.2,84.2h-18l-4.7-11.3h-32.4l-4.7,11.3H681L717.7,408.7z M728.5,467.2l-5.3-12.6
		c-2.3-5.5-4.8-14-5-14.8c-0.1,0.4-2.6,9.1-4.9,14.8l-5.3,12.6H728.5z"/>
	<path class="st0" d="M758.4,451.1c0-24.7,19-42.7,42.9-42.7c15.1,0,25.9,5.4,33.4,17.1l-13.1,9.3c-3.9-6.4-10.7-10.9-20.2-10.9
		c-15.1,0-25.3,11.7-25.3,27.2c0,15.6,10.2,27.5,25.3,27.5c10.8,0,16.8-5.2,21.5-12.3l13.4,9.2c-7.2,11.3-18.8,18.4-34.8,18.4
		C777.5,494,758.4,475.8,758.4,451.1z"/>
	<path class="st0" d="M849,409.4h17.2v35.3h35.7v-35.3H919v83.4h-17.2v-32.8h-35.7v32.8H849V409.4z"/>
	<path class="st0" d="M968.6,409.4h9v83.4h-9V409.4z"/>
	<path class="st0" d="M1014.1,434.8c-2.2-2.6-5.4-7-5.8-7.6c0,0.6,0.7,6,0.7,9.3v56.3h-8.3v-84.3h1.5l49.8,58.9
		c2.2,2.7,5.4,7.2,5.8,7.7c0-0.2-0.6-5.9-0.6-9.4v-56.3h8.2v84.3h-1.5L1014.1,434.8z"/>
	<path class="st0" d="M1080.4,476.9l7.4-3.9c3.9,7,9.7,13,21.5,13c9.7,0,17.3-5.4,17.3-14.2c0-8.5-5.3-12.8-15.7-17.4l-6.6-3.1
		c-11.9-5.4-18.4-11.2-18.4-22.8c0-12,9.4-20,22-20c11.2,0,18.2,5.2,22.6,12.5l-7.1,4.4c-3.2-5.2-7.6-9.1-15.5-9.1
		c-8.2,0-13.2,4.8-13.2,11.9c0,7.4,3.9,10.7,13.2,15l6.6,3.1c13.9,6.1,21,13,21,25.5c0,13.7-10.9,22.1-25.9,22.1
		C1093.5,493.8,1084.8,485.7,1080.4,476.9z"/>
	<path class="st0" d="M1169.8,417.3h-25.6v-7.9h60.1v7.9h-25.6v75.6h-8.8V417.3z"/>
	<path class="st0" d="M1220.1,409.4h9v83.4h-9V409.4z"/>
	<path class="st0" d="M1270.5,417.3h-25.6v-7.9h60.1v7.9h-25.6v75.6h-8.8V417.3z"/>
	<path class="st0" d="M1319.7,464.4v-55h8.8v54.3c0,14.8,8.1,22.2,21.1,22.2c12.9,0,21.1-7.4,21.1-22.2v-54.3h8.8v55
		c0,19.5-13,29.4-29.9,29.4C1332.6,493.8,1319.7,483.9,1319.7,464.4z"/>
	<path class="st0" d="M1420,417.3h-25.6v-7.9h60.1v7.9h-25.6v75.6h-8.8V417.3z"/>
	<path class="st0" d="M1469.9,409.4h50.8v7.9h-42v29.8h37.4v7.7h-37.4V485h43.7v7.9h-52.5V409.4z"/>
</g>
<g>
	<path class="st0" d="M326,601l8.6-6c3.2,4.6,8.1,6.7,14,6.7c6.3,0,9.2-2.1,9.2-5.6c0-4.2-3.8-4.8-12.7-7.3
		c-7.7-2.1-15.4-5.7-15.4-16c0-10.4,8.3-15.4,18.6-15.4c8.3,0,14.1,3.5,18.1,7.8l-7.3,7.2c-2.5-2.9-6.1-5.1-10.8-5.1
		c-4.7,0-7.3,1.7-7.3,4.8c0,4,3.2,4.8,11.4,6.9c8.2,2.1,17.1,5.3,17.1,16.4c0,8.9-5.5,16.2-20.2,16.2
		C337.4,611.8,329.4,606.5,326,601z"/>
	<path class="st0" d="M382.1,558.5h12.7l-0.4,9.7c3.3-6.5,9.6-10.8,18.5-10.8c13.4,0,24.2,11.3,24.2,27s-10.9,27.3-24.4,27.3
		c-8.7,0-14.9-4.2-17.9-10v35.2h-12.7V558.5z M424.2,584.5c0-9.4-5.7-15.9-14.8-15.9c-9.2,0-15.1,6.5-15.1,15.9
		c0,9.8,6,16.2,15.1,16.2C418.5,600.7,424.2,594.3,424.2,584.5z"/>
	<path class="st0" d="M471,567.8c-6.8,0-10.8,3-13.6,6.2l-7.2-7.3c4.6-5.5,10.8-9.3,21.8-9.3c12.5,0,22,7.1,22,22.5v30.8h-12.5
		l0.4-7.4c-3.7,5.6-8.7,8.6-16.4,8.6c-10.3,0-18.7-4.8-18.7-16.5c0-10.8,8.7-15.5,20.5-15.6h14.3C481.4,571.3,477.7,567.8,471,567.8
		z M468,588.3c-5.5,0-9.1,2-9.1,6.6c0,4.5,3.5,6.8,9.9,6.8c7.3,0,12.5-3.6,12.5-9.3v-4.1H468z"/>
	<path class="st0" d="M509.3,558.5h12.5l-0.1,9.8c3.5-8.2,9.4-10.8,15.1-10.8c3.7,0,6.3,0.9,8.6,2.2l-4.2,11.3c-2-1-4-1.7-6.8-1.7
		c-7.4,0-12.5,4.3-12.5,16v25.3h-12.5V558.5z"/>
	<path class="st0" d="M568.1,610.6h-12.5v-89.6h12.5v51.7c0,3.2-0.4,6.5-0.6,9.2l20.8-23.4h14.3l-19.2,21.7l21.8,30.4h-14.8
		l-15.8-22.2l-6.6,6.8V610.6z"/>
	<path class="st0" d="M647.2,593v-23.9h-7.8v-10.5h7.8v-20.1h12.5v20.1h13.9v10.5h-13.9v24.2c0,6.1,2,7.8,5.2,7.8
		c3.3,0,5.2-1.6,6.6-2.7l5.2,8.6c-2.6,2.4-6.5,5-13.5,5C654,611.9,647.2,606.9,647.2,593z"/>
	<path class="st0" d="M687,521.1h12.5v46.6c3.3-6.5,9.6-10.3,17.4-10.3c11.5,0,19.5,8.2,19.5,22.3v30.9h-12.5v-29.9
		c0-7.4-3.5-11.8-10.8-11.8c-8.2,0-13.5,5-13.5,13.4v28.3H687V521.1z"/>
	<path class="st0" d="M778.4,601.2c6.8,0,11.8-2.7,14.8-5.6l7.3,7.7c-4.8,4.8-11.5,8.4-22,8.4c-17.9,0-29.4-11.5-29.4-27.2
		c0-15.5,12.2-27.2,27.8-27.2c17.7,0,27.8,13.1,26.9,31.4h-41.9C763.4,596.4,768.9,601.2,778.4,601.2z M791.2,580.1
		c-1.1-7.1-5.5-12.3-14.1-12.3c-8.1,0-13.6,4.5-15.1,12.3H791.2z"/>
	<path class="st0" d="M842.9,584.6c0-15.5,11.9-27.2,27.8-27.2c9.8,0,16.1,3.7,21.1,9.9l-8.9,7.2c-2.5-3.6-6.8-6.1-12.2-6.1
		c-9.3,0-14.9,6.8-14.9,16.1s5.6,16.1,14.9,16.1c6.2,0,9.9-2.6,12.8-5.8l8.6,7.4c-5.1,5.8-11.3,9.4-21.3,9.4
		C854.8,611.8,842.9,600.2,842.9,584.6z"/>
	<path class="st0" d="M903.9,521.1h12.5v46.6c3.3-6.5,9.6-10.3,17.4-10.3c11.5,0,19.5,8.2,19.5,22.3v30.9h-12.5v-29.9
		c0-7.4-3.5-11.8-10.8-11.8c-8.2,0-13.5,5-13.5,13.4v28.3h-12.5V521.1z"/>
	<path class="st0" d="M989.8,567.8c-6.8,0-10.8,3-13.6,6.2l-7.2-7.3c4.6-5.5,10.8-9.3,21.8-9.3c12.5,0,22,7.1,22,22.5v30.8h-12.5
		l0.4-7.4c-3.7,5.6-8.7,8.6-16.4,8.6c-10.3,0-18.7-4.8-18.7-16.5c0-10.8,8.7-15.5,20.5-15.6h14.3
		C1000.2,571.3,996.5,567.8,989.8,567.8z M986.8,588.3c-5.5,0-9.1,2-9.1,6.6c0,4.5,3.5,6.8,9.9,6.8c7.3,0,12.5-3.6,12.5-9.3v-4.1
		H986.8z"/>
	<path class="st0" d="M1028.1,558.5h12.5l-0.2,9.7c3.2-6.8,9.8-10.8,17.6-10.8c11.5,0,19.5,8.2,19.5,22.3v30.9h-12.5v-29.9
		c0-7.4-3.5-11.8-10.8-11.8c-8.2,0-13.5,5-13.5,13.4v28.3h-12.5V558.5z"/>
	<path class="st0" d="M1091.1,624.5l9.1-6.7c4.1,6,9.2,9.8,17.5,9.8c9.4,0,15.1-5.2,15.1-16.9v-9.1c-3.1,5.8-9.3,10-18,10
		c-13.5,0-24.4-11.5-24.4-27.3s10.9-27,24.2-27c9.2,0,15.3,4.5,18.6,10.8l-0.4-9.7h12.5v52.8c0,19.1-11.8,26.8-27,26.8
		C1104.9,638.2,1095.8,632.3,1091.1,624.5z M1133.2,584.5c0-9.4-6-15.9-15.1-15.9c-9.1,0-14.8,6.5-14.8,15.9
		c0,9.8,5.7,16.2,14.8,16.2C1127.2,600.7,1133.2,594.3,1133.2,584.5z"/>
	<path class="st0" d="M1187.8,601.2c6.8,0,11.8-2.7,14.8-5.6l7.3,7.7c-4.8,4.8-11.5,8.4-22,8.4c-17.9,0-29.4-11.5-29.4-27.2
		c0-15.5,12.2-27.2,27.8-27.2c17.7,0,27.8,13.1,26.9,31.4h-41.9C1172.8,596.4,1178.3,601.2,1187.8,601.2z M1200.6,580.1
		c-1.1-7.1-5.5-12.3-14.1-12.3c-8.1,0-13.6,4.5-15.1,12.3H1200.6z"/>
</g>
</svg>
