<svg xmlns="http://www.w3.org/2000/svg" viewBox="0 0 663.45 108.18"><defs><style>.cls-1{fill:none;}.cls-2{fill:#9b2265;}.cls-3{fill:#43beae;}.cls-4{fill:#fff;}.cls-5{fill:url(#New_Pattern_Swatch_2);}.cls-6{fill:url(#New_Pattern_Swatch_4);}</style><pattern id="New_Pattern_Swatch_2" data-name="New Pattern Swatch 2" width="54.42" height="54.42" patternTransform="translate(57.03 62.25)" patternUnits="userSpaceOnUse" viewBox="0 0 54.42 54.42"><path class="cls-1" d="M0 0h54.42v54.42H0z"/><path class="cls-2" d="M0 0h54.42v54.42H0z"/></pattern><pattern id="New_Pattern_Swatch_4" data-name="New Pattern Swatch 4" width="54.42" height="54.42" patternTransform="translate(57.03 62.25)" patternUnits="userSpaceOnUse" viewBox="0 0 54.42 54.42"><path class="cls-1" d="M0 0h54.42v54.42H0z"/><path class="cls-3" d="M0 0h54.42v54.42H0z"/></pattern></defs><title>hci_logo_v2_dark</title><g id="Layer_2" data-name="Layer 2"><g id="Layer_1-2" data-name="Layer 1"><path class="cls-4" d="M102.59 28.21a19.37 19.37 0 0 0-16.9-5.45 19.63 19.63 0 0 0-7.42-18.63A19.3 19.3 0 0 0 65.09.08a19.58 19.58 0 0 0-10.81 4.1 19 19 0 0 0-18.21-3.1A19.55 19.55 0 0 0 23 22.76a19.78 19.78 0 0 0-5-.16c-8.1.76-14 5.33-16.74 12.87a18.89 18.89 0 0 0 2.86 18.62 19.62 19.62 0 0 0 18.6 31.37 20.19 20.19 0 0 0 .16 6.71 18.77 18.77 0 0 0 13.31 15 20.85 20.85 0 0 0 6.29 1 18.48 18.48 0 0 0 11.59-4.11 19 19 0 0 0 11.76 4.06 20.82 20.82 0 0 0 3.69-.34 18.77 18.77 0 0 0 15.27-13.54 19.8 19.8 0 0 0 .71-8.76 19 19 0 0 0 3.34.3 19.67 19.67 0 0 0 15.4-31.68 19.57 19.57 0 0 0-1.65-25.89z"/><path class="cls-5" d="M64.49 87.49c1-1 2.1-1.84 3.07-2.68l-5.48-5.67c-.42.51-.72.94-1.08 1.3-5 5-9.91 10-14.91 14.9a6.51 6.51 0 0 1-9.3-9.12 10.93 10.93 0 0 1 1.69-1.27L33 79.52c-4.21 3.53-6.3 8.15-5.23 13.83A13.12 13.12 0 0 0 37.22 104a13.21 13.21 0 0 0 13.87-3.19c4.54-4.36 8.91-8.89 13.4-13.32zM59.57 53.18c-.38.39-.94.67-1 .95l13.22 13.24 5-5-8.1-7.88c6-6 11.64-11.68 17.36-17.35a6.41 6.41 0 0 1 9.23 0 6.47 6.47 0 0 1 0 9.25c-.52.55-1.36 1.38-1.36 1.38l5.28 5.37c.36-.41.78-.93 1.25-1.41a14 14 0 1 0-19.8-19.65q-10.56 10.53-21.08 21.1z"/><path class="cls-5" d="M80 94.82a13.36 13.36 0 0 0-3.59-14.06c-4.47-4.51-9-9-13.43-13.49-2.93-2.95-5.83-5.91-8.56-8.68L41.21 71.85l5.2 5.22 7.69-8.12C60 74.8 65.75 80.49 71.44 86.27a6.42 6.42 0 0 1-.14 9.14 6.53 6.53 0 0 1-9.16 0 7.83 7.83 0 0 0-1.62-1.49L55.36 99c3.57 4.31 8.16 6.43 13.83 5.41A13.16 13.16 0 0 0 80 94.82zM49.88 54.62L36.77 41.3l-5.28 5.1 8.06 7.89c-5.93 6-11.67 11.86-17.54 17.6a6.33 6.33 0 0 1-9-.37 6.49 6.49 0 0 1 0-9l1.6-1.8-5.14-5.15c-.71.7-1.44 1.36-2.1 2.09A13.94 13.94 0 0 0 27.4 77c7.37-7.27 14.66-14.63 22-22 .19-.14.48-.31.48-.38zM51.63 47.68c.87.88 1.62 1.88 2.2 2.55L67.18 37l-5.12-5.2-7.82 8C48.46 34 42.63 28.23 36.92 22.4a6.38 6.38 0 0 1 .19-9 6.53 6.53 0 0 1 9-.18c.65.57 1.11 1.37 1.67 1.6L53.1 9.9c-4.36-5.25-10.15-7.07-15.86-5.11a13.93 13.93 0 0 0-5.35 23.12c6.51 6.66 13.17 13.17 19.74 19.77z"/><path class="cls-5" d="M41.14 24.18l5.27 5.34s.75-.9 1.18-1.34q7.32-7.37 14.68-14.68a6.53 6.53 0 1 1 9.35 9.11c-.51.57-1.49 1.62-1.49 1.62l5.07 5.08a13.95 13.95 0 1 0-18-21.21q-7.51 7.5-15 15c-.42.36-1.06 1.08-1.06 1.08zM100.17 56.72q-4.76-4.74-9.49-9.5c-2-2.06-4.06-4.16-6-6.16l-5.48 5.49c1.35 1.25 2.84 2.55 4.23 3.93q5.94 5.88 11.81 11.82a6.58 6.58 0 0 1 .89 8.43 6.76 6.76 0 0 1-8.63 2c-1.22-.62-2-1.78-3-2.64l-5.29 5.4c.41.35.94.76 1.43 1.23 5.87 5.63 14.49 5.65 20 0s5.27-14.27-.47-20zM21.81 65.61c.72.72 1.33 1.55 1.82 2.12l5.57-5.4c-1.69-1.64-3.42-3.28-5.12-5-3.65-3.63-7.32-7.26-10.92-10.94A6.52 6.52 0 0 1 22.22 37c.61.55 1.19 1.13 1.64 1.56l5.22-5.11c-3.22-3.9-7.31-6.1-12.49-5.62-5.81.54-10 3.62-11.94 9.12s-.73 10.71 3.48 14.96c4.55 4.58 9.13 9.09 13.68 13.7z"/><path class="cls-6" d="M33.66 32.11L17.41 48.3l4.8 4.7 16.23-16.12zM60.68 17.79l-4.74 4.62 16 16.07 4.68-4.66zM74.67 76.65l16.22-16L86 55.69 69.74 71.87zM31.76 75.19l16 16 4.84-4.84-16-16z"/><path class="cls-4" d="M133.81 39.56h4.72v11.18h12.83V39.56h4.72v26.88h-4.72V55.11h-12.82v11.33h-4.72zM163 39.56h19.93v4.22h-15.21v7h13.48V55h-13.48v7.22h15.4v4.22H163zM198.26 39.37h4.38l11.83 27.08h-5L206.74 60H194l-2.77 6.49h-4.84zm6.74 16.4L200.37 45l-4.61 10.75zM219.07 39.56h4.72v22.58h14.13v4.3h-18.85zM245.61 43.94h-8.53v-4.38h21.82v4.38h-8.53v22.5h-4.76zM263.89 39.56h4.72v11.18h12.83V39.56h4.72v26.88h-4.72V55.11h-12.83v11.33h-4.72zM303.41 53.08V53a13.6 13.6 0 0 1 13.87-13.9 14 14 0 0 1 10.52 4.19l-3 3.5a10.69 10.69 0 0 0-7.53-3.34c-5.15 0-8.87 4.22-8.87 9.49V53c0 5.26 3.73 9.56 8.87 9.56 3.3 0 5.42-1.34 7.72-3.5l3 3.07a13.87 13.87 0 0 1-10.91 4.76 13.52 13.52 0 0 1-13.67-13.81zM331 53.08V53a14.06 14.06 0 0 1 28.11-.08V53a14.06 14.06 0 0 1-28.11.08zm23.16 0V53c0-5.22-3.8-9.56-9.14-9.56s-9.06 4.26-9.06 9.49V53c0 5.22 3.8 9.56 9.14 9.56s9.04-4.26 9.04-9.48zM372.69 39.37h4.38l11.83 27.07h-5L381.18 60h-12.72l-2.77 6.49h-4.84zm6.76 16.4L374.8 45l-4.61 10.75zM390.66 53.08V53a13.6 13.6 0 0 1 13.87-13.9A14 14 0 0 1 415 43.28l-3 3.5a10.69 10.69 0 0 0-7.53-3.34c-5.15 0-8.87 4.22-8.87 9.49V53c0 5.26 3.73 9.56 8.87 9.56 3.3 0 5.42-1.34 7.72-3.5l3 3.07a13.87 13.87 0 0 1-10.91 4.76 13.52 13.52 0 0 1-13.62-13.81zM420.2 39.56h4.72v11.18h12.83V39.56h4.72v26.88h-4.72V55.11h-12.83v11.33h-4.72zM461.17 39.56h4.72v26.88h-4.72zM473.08 39.56h4.38l14.4 18.59V39.56h4.65v26.88h-4l-14.79-19.12v19.12h-4.65zM501.61 62.53l2.84-3.38a12.38 12.38 0 0 0 8.49 3.5c2.92 0 4.76-1.34 4.76-3.38v-.08c0-1.92-1.08-3-6.07-4.11-5.72-1.38-8.95-3.07-8.95-8V47c0-4.61 3.84-7.8 9.18-7.8a14.9 14.9 0 0 1 9.75 3.38l-2.54 3.57a12.21 12.21 0 0 0-7.3-2.76c-2.77 0-4.38 1.42-4.38 3.19v.08c0 2.07 1.23 3 6.37 4.23 5.68 1.38 8.64 3.42 8.64 7.87v.08c0 5-4 8-9.6 8a16.56 16.56 0 0 1-11.19-4.31zM534 43.94h-8.5v-4.38h21.82v4.38h-8.53v22.5H534zM552.57 39.56h4.72v26.88h-4.72zM571.08 43.94h-8.53v-4.38h21.81v4.38h-8.53v22.5h-4.76zM588.94 55V39.56h4.72v15.28c0 5 2.57 7.68 6.8 7.68s6.76-2.52 6.76-7.52V39.56h4.72v15.25c0 8-4.53 12.06-11.56 12.06S588.94 62.83 588.94 55zM625 43.94h-8.53v-4.38h21.82v4.38h-8.53v22.5H625zM643.32 39.56h19.93v4.22H648v7h13.48V55H648v7.22h15.4v4.22h-20.08z"/></g></g></svg>